<svg viewBox="0 0 512 512" class="fl-svg fl-front" style="transform: translateY(-4%) scale(0.33);"><svg xmlns="http://www.w3.org/2000/svg" width="512" height="512" style="" viewBox="0 0 512 512" data-svgdocument="" id="_f1KC76QPJoPzqALcag6rf" class="fl-svgdocument" x="0" y="0" data-bbox="103.73756481451665 27.94072351511027 304.5248703709666 433.1264509717319"><rect data-fl-background="" x="0" y="0" width="512" height="512" fill="transparent"></rect><defs id="_8Zd22Pkdsmg3dU1JOF2Jb" transform="matrix(1.044432520866394, 0, 0, 1.044432520866394, -12.004644393920898, -9.785348892211914)"></defs><path text="IDEAS" text-anchor="middle" font-size="100" letter-spacing="0" side="left" offset="0.5" dx="0" dy="0" space="preserve" href="" font-family="Teko" font-scale="contain" transform="matrix(1.2330341339111328, 0, 0, 1.2330341339111328, 255.58201599121094, 461.0671691894531)" x="0" y="0" fill="#1ba8cb" data-fl-textpath="" id="_AF6PbZTLnBLtQghbhLXCB" d="M-79.55 0L-79.55-62.6L-70.55-62.6L-70.55 0L-79.55 0ZM-59.15 0L-59.15-62.6L-37.349999999999994-62.6Q-28.049999999999997-62.6 -28.049999999999997-53.8L-28.049999999999997-53.8L-28.049999999999997-8.8Q-28.049999999999997 0 -37.349999999999994 0L-37.349999999999994 0L-59.15 0ZM-37.15-10L-37.15-10L-37.15-52.6Q-37.15-54.4 -37.75-54.95Q-38.349999999999994-55.5 -40.15-55.5L-40.15-55.5L-50.05-55.5L-50.05-7.1L-40.15-7.1Q-38.349999999999994-7.1 -37.75-7.65Q-37.15-8.2 -37.15-10ZM-9.049999999999994-28.7L-9.049999999999994-7.3L 9.050000000000004-7.3L 9.050000000000004 0L-18.149999999999995 0L-18.149999999999995-62.6L 8.350000000000005-62.6L 8.350000000000005-55.3L-9.049999999999994-55.3L-9.049999999999994-36L 5.350000000000005-36L 5.350000000000005-28.7L-9.049999999999994-28.7ZM 48.25000000000001 0L 39.150000000000006 0L 36.650000000000006-14.5L 23.45000000000001-14.5L 21.15000000000001 0L 12.15000000000001 0L 23.25000000000001-62.6L 36.35000000000001-62.6L 48.25000000000001 0ZM 29.75000000000001-54.8L 24.55000000000001-21.8L 35.45000000000001-21.8L 29.75000000000001-54.8ZM 72.65000000000002-10.2L 72.65000000000002-10.2L 72.65000000000002-25.5Q 72.65000000000002-27.3  72.10000000000002-27.85Q 71.55000000000001-28.4  69.75000000000001-28.4L 69.75000000000001-28.4L 62.350000000000016-28.4Q 53.250000000000014-28.4  53.250000000000014-37.3L 53.250000000000014-37.3L 53.250000000000014-53.8Q 53.250000000000014-62.6  62.55000000000002-62.6L 62.55000000000002-62.6L 72.35000000000002-62.6Q 81.65000000000002-62.6  81.65000000000002-53.8L 81.65000000000002-53.8L 81.65000000000002-44.6L 72.55000000000001-44.6L 72.55000000000001-52.4Q 72.55000000000001-54.2  71.95000000000002-54.75Q 71.35000000000002-55.3  69.55000000000001-55.3L 69.55000000000001-55.3L 65.35000000000002-55.3Q 63.55000000000002-55.3  62.95000000000002-54.75Q 62.350000000000016-54.2  62.350000000000016-52.4L 62.350000000000016-52.4L 62.350000000000016-38.5Q 62.350000000000016-36.7  62.95000000000002-36.15Q 63.55000000000002-35.6  65.35000000000002-35.6L 65.35000000000002-35.6L 72.65000000000002-35.6Q 81.85000000000002-35.6  81.85000000000002-26.8L 81.85000000000002-26.8L 81.85000000000002-8.8Q 81.85000000000002 0  72.45000000000002 0L 72.45000000000002 0L 62.750000000000014 0Q 53.45000000000002 0  53.45000000000002-8.8L 53.45000000000002-8.8L 53.45000000000002-18L 62.55000000000002-18L 62.55000000000002-10.2Q 62.55000000000002-8.4  63.15000000000002-7.85Q 63.750000000000014-7.3  65.55000000000001-7.3L 65.55000000000001-7.3L 69.75000000000001-7.3Q 71.55000000000001-7.3  72.10000000000002-7.85Q 72.65000000000002-8.4  72.65000000000002-10.2Z"></path><path id="_JW1AzrW-bmrejRpLOvK9x" d="M355.5 66.057l105.081 182.008L355.5 430.072H145.335L40.252 248.064L145.335 66.057H355.5 M375.16 32  H125.673L0.928 248.064l124.744 216.064H375.16l124.745-216.064L375.16 32L375.16 32z" fill="rgba(194, 142, 14, 1)" transform="matrix(0, 0.6825518012046814, -0.7047098875045776, 0, 430.8131408691406, 27.307315826416016)"></path><g transform="matrix(3.1408793926239014, 0, 0, 3.1408793926239014, 155.49185180664062, 97.72140502929688)"><path fill="#48cae4" d="M50 55a1 1 0 0 1-1-1V40a1 1 0 0 1 .553-.9l8-4a1 1 0 1 1 .894 1.79L51 40.618V54a1 1 0 0 1-1 1Z" transform="matrix(1, 0, 0, 1, 0, 0)"></path><path fill="#fcf2ad" transform="matrix(1, 0, 0, 1, 0, 0)" data-type="circle" data-cx="58" data-cy="44" data-r="2" d="M58,44m-2,0a2,2 0 1, 0 4,0a2,2 0 1, 0 -4,0"></path><path fill="#fcf2ad" transform="matrix(1, 0, 0, 1, 0, 0)" data-type="circle" data-cx="50" data-cy="56" data-r="2" d="M50,56m-2,0a2,2 0 1, 0 4,0a2,2 0 1, 0 -4,0"></path><path fill="#fcf2ad" transform="matrix(1, 0, 0, 1, 0, 0)" data-type="circle" data-cx="31" data-cy="6" data-r="2" d="M31,6m-2,0a2,2 0 1, 0 4,0a2,2 0 1, 0 -4,0"></path><path fill="#fcf2ad" transform="matrix(1, 0, 0, 1, 0, 0)" data-type="circle" data-cx="14" data-cy="16" data-r="2" d="M14,16m-2,0a2,2 0 1, 0 4,0a2,2 0 1, 0 -4,0"></path><path fill="#fcf2ad" transform="matrix(1, 0, 0, 1, 0, 0)" data-type="circle" data-cx="6" data-cy="27" data-r="2" d="M6,27m-2,0a2,2 0 1, 0 4,0a2,2 0 1, 0 -4,0"></path><path fill="#fcf2ad" transform="matrix(1, 0, 0, 1, 0, 0)" data-type="circle" data-cx="58" data-cy="6" data-r="2" d="M58,6m-2,0a2,2 0 1, 0 4,0a2,2 0 1, 0 -4,0"></path><path fill="#fcf2ad" transform="matrix(1, 0, 0, 1, 0, 0)" data-type="circle" data-cx="9" data-cy="8" data-r="2" d="M9,8m-2,0a2,2 0 1, 0 4,0a2,2 0 1, 0 -4,0"></path><path fill="#fcf2ad" transform="matrix(1, 0, 0, 1, 0, 0)" data-type="circle" data-cx="8" data-cy="38" data-r="2" d="M8,38m-2,0a2,2 0 1, 0 4,0a2,2 0 1, 0 -4,0"></path><path fill="#48cae4" d="M8 27a1 1 0 0 1-.448-1.895L13 22.382V18a1 1 0 0 1 2 0v5a1 1 0 0 1-.553.895l-6 3A1.01 1.01 0 0 1 8 27zm50 16a1 1 0 0 1-1-1V18.535l-3.435-2.293a1 1 0 0 1 1.11-1.663l3.88 2.589A1 1 0 0 1 59 18v24a1 1 0 0 1-1 1zM44.759 9.38a1 1 0 0 1-.447-.106L39.764 7H33a1 1 0 0 1 0-2h7a1 1 0 0 1 .447.105l4.76 2.38a1 1 0 0 1-.448 1.9zM15 15a1 1 0 0 1-.707-1.707l3-3A1 1 0 0 1 18 10h20a1 1 0 0 1 .447.105l5 2.5a1 1 0 1 1-.894 1.79L37.764 12h-19.35l-2.707 2.707A1 1 0 0 1 15 15z" transform="matrix(1, 0, 0, 1, 0, 0)"></path><path fill="#f9dbaf" d="M58 47a3 3 0 1 1 3-3 3 3 0 0 1-3 3zm0-4a1 1 0 1 0 1 1 1 1 0 0 0-1-1zm-8 16a3 3 0 1 1 3-3 3 3 0 0 1-3 3zm0-4a1 1 0 1 0 1 1 1 1 0 0 0-1-1zM31 9a3 3 0 1 1 3-3 3 3 0 0 1-3 3zm0-4a1 1 0 1 0 1 1 1 1 0 0 0-1-1zM14 19a3 3 0 1 1 3-3 3 3 0 0 1-3 3zm0-4a1 1 0 1 0 1 1 1 1 0 0 0-1-1zM6 30a3 3 0 1 1 3-3 3 3 0 0 1-3 3zm0-4a1 1 0 1 0 1 1 1 1 0 0 0-1-1zM58 9a3 3 0 1 1 3-3 3 3 0 0 1-3 3zm0-4a1 1 0 1 0 1 1 1 1 0 0 0-1-1zM9 11a3 3 0 1 1 3-3 3 3 0 0 1-3 3zm0-4a1 1 0 1 0 1 1 1 1 0 0 0-1-1zM8 41a3 3 0 1 1 3-3 3 3 0 0 1-3 3zm0-4a1 1 0 1 0 1 1 1 1 0 0 0-1-1zm32 20h-6a1 1 0 0 1 0-2h6a1 1 0 0 1 0 2zm-1 4h-5a1 1 0 0 1 0-2h5a1 1 0 0 1 0 2z" transform="matrix(1, 0, 0, 1, 0, 0)"></path><path fill="#fcf2ad" transform="matrix(1, 0, 0, 1, 0, 0)" data-type="circle" data-cx="49" data-cy="12" data-r="7" d="M49,12m-7,0a7,7 0 1, 0 14,0a7,7 0 1, 0 -14,0"></path><path fill="#f9dbaf" transform="matrix(1, 0, 0, 1, 0, 0)" data-type="circle" data-cx="49" data-cy="12" data-r="4" d="M49,12m-4,0a4,4 0 1, 0 8,0a4,4 0 1, 0 -8,0"></path><path fill="#e9f1f2" d="m40.01 21.16 5.196 3-5 8.661-5.196-3z" transform="matrix(1, 0, 0, 1, 0, 0)"></path><path fill="#e9f1f2" d="m43.51 15.099 5.196 3-3.5 6.062-5.196-3z" transform="matrix(1, 0, 0, 1, 0, 0)"></path><path fill="#e9f1f2" d="M49.108 11.402a3 3 0 0 1 1.098 4.098l-1.5 2.599-5.196-3 1.5-2.599a3 3 0 0 1 4.098-1.098Z" transform="matrix(1, 0, 0, 1, 0, 0)"></path><path fill="#d0d8da" d="M42.206 24.357a3.987 3.987 0 0 1-5.006 1.67l-2.19 3.794 5.2 3 5-8.66-2.165-1.25Z" transform="matrix(1, 0, 0, 1, 0, 0)"></path><path fill="#d0d8da" d="m46.657 16.916-.451.781a3.987 3.987 0 0 1-5.129 1.615l-1.067 1.849 5.2 3 3.5-6.062Z" transform="matrix(1, 0, 0, 1, 0, 0)"></path><path fill="#d0d8da" d="M49.512 11.694a2.933 2.933 0 0 1-.306.806 3 3 0 0 1-4.1 1.1l-.549-.317L43.51 15.1l5.2 3 1.5-2.6a2.993 2.993 0 0 0-.698-3.806Z" transform="matrix(1, 0, 0, 1, 0, 0)"></path><path fill="#e9f1f2" d="M37.912 18.795a3 3 0 0 1 1.098 4.098l-3.5 6.062-5.196-3 3.5-6.062a3 3 0 0 1 4.098-1.098Z" transform="matrix(1, 0, 0, 1, 0, 0)"></path><path fill="#e9f1f2" d="M32.715 15.795a3 3 0 0 1 1.099 4.098l-3.5 6.062-5.197-3 3.5-6.062a3 3 0 0 1 4.098-1.098Z" transform="matrix(1, 0, 0, 1, 0, 0)"></path><path fill="#e9f1f2" d="M26.518 14.527a3 3 0 0 1 1.099 4.098l-3.5 6.062-5.197-3 3.5-6.062a3 3 0 0 1 4.098-1.098Z" transform="matrix(1, 0, 0, 1, 0, 0)"></path><path fill="#d0d8da" d="M38.51 20.491a4 4 0 0 1-5.464 1.464l-.317-.183-2.416 4.183 5.2 3 3.5-6.062a2.988 2.988 0 0 0-.087-3.118Z" transform="matrix(1, 0, 0, 1, 0, 0)"></path><path fill="#d0d8da" d="M33.313 17.491a4 4 0 0 1-5.464 1.464l-.317-.183-2.415 4.183 5.2 3 3.5-6.062a2.988 2.988 0 0 0-.086-3.118Z" transform="matrix(1, 0, 0, 1, 0, 0)"></path><path fill="#d0d8da" d="m22.653 16.687-.634-.366-3.1 5.366 5.2 3 3.5-6.062a2.994 2.994 0 0 0 .089-2.831 3.993 3.993 0 0 1-5.055.893Z" transform="matrix(1, 0, 0, 1, 0, 0)"></path><path fill="#b8bebf" d="m14.983 42.507 8.66 5-6 10.393-8.66-5z" transform="matrix(1, 0, 0, 1, 0, 0)"></path><path fill="#93999a" d="m14.983 42.508-2.428 4.2a7.927 7.927 0 0 0 5.034 3.158 6.986 6.986 0 0 1-6.008-.471l-.433-.25L8.983 52.9l8.661 5 6-10.392Z" transform="matrix(1, 0, 0, 1, 0, 0)"></path><path fill="#d0d8da" transform="matrix(1, 0, 0, 1, 0, 0)" data-type="circle" data-cx="21.313" data-cy="41.543" data-r="8" d="M21.313,41.543m-8,0a8,8 0 1, 0 16,0a8,8 0 1, 0 -16,0"></path><path fill="#b8bebf" d="M25.313 34.615a7.96 7.96 0 0 0-11.5 4.174l10.914 6.3A7.971 7.971 0 0 1 13.4 40.4a8 8 0 1 0 11.913-5.786Z" transform="matrix(1, 0, 0, 1, 0, 0)"></path><path fill="#e9f1f2" d="m54 26.929-3.5 6.062-4.33-2.5 1-1.732a5 5 0 0 1 6.83-1.83Z" transform="matrix(1, 0, 0, 1, 0, 0)"></path><path fill="#e9f1f2" d="m48 37.321-7.062-1.768 5.232-5.062 4.33 2.5-2.5 4.33z" transform="matrix(1, 0, 0, 1, 0, 0)"></path><path fill="#d0d8da" d="m51.68 30.94-1.18 2.05-4.33-2.5 1-1.73a5.016 5.016 0 0 1 4.34-2.5 4.97 4.97 0 0 0-1.34 1.5 2.031 2.031 0 0 0-.27 1 2 2 0 0 0 1 1.73Z" transform="matrix(1, 0, 0, 1, 0, 0)"></path><path fill="#d0d8da" d="M48.88 35.79 48 37.32l-7.06-1.77 5.23-5.06 1.23.71-.87.85a2 2 0 0 0 .9 3.38Z" transform="matrix(1, 0, 0, 1, 0, 0)"></path><path fill="#b8bebf" d="m34.519 45.694-5.411.349 7-12.124L48 37.321a16.814 16.814 0 0 1-13.481 8.373Z" transform="matrix(1, 0, 0, 1, 0, 0)"></path><path fill="#93999a" d="M41.45 43.69a16.74 16.74 0 0 1-6.93 2l-5.41.35 7-12.12 2.553.727a2 2 0 0 1 1.184 2.924L38.82 39.35a2.9 2.9 0 0 0 2.63 4.34Z" transform="matrix(1, 0, 0, 1, 0, 0)"></path><path fill="#e9f1f2" d="m29.974 46.543-17.321-10 1.911-6.071a26.021 26.021 0 0 1 2.284-5.194l3.073-5.323 20.785 12-3.073 5.323a26.027 26.027 0 0 1-3.356 4.574Z" transform="matrix(1, 0, 0, 1, 0, 0)"></path><path fill="#d0d8da" d="m25.5 22.176-4.23-2.442a3 3 0 1 0 4.23 2.442Z" transform="matrix(1, 0, 0, 1, 0, 0)"></path><path fill="#d0d8da" d="m30.7 25.176-4.231-2.442a3 3 0 1 0 4.231 2.442zm6.172 4.566a2.839 2.839 0 0 0-1.667 2.011 14.213 14.213 0 0 1-16.642 1.78l-4.2-2.425-1.711 5.435 17.321 10 4.3-4.691a26.035 26.035 0 0 0 3.356-4.575l3.073-5.322z" transform="matrix(1, 0, 0, 1, 0, 0)"></path><path fill="#d0d8da" d="m35.893 28.176-4.231-2.442a3 3 0 1 0 4.231 2.442Z" transform="matrix(1, 0, 0, 1, 0, 0)"></path><path fill="#ade8f4" rx="3" transform="matrix(0.8660255074501038, 0.5, -0.5, 0.8660255074501038, 13.743973731994629, -8.385208129882812)" data-type="rect" data-x="19.519" data-y="18.455" data-width="6" data-height="6" d="M19.519 18.455H25.519 V24.455 H19.519 Z"></path><path fill="#ade8f4" rx="3" transform="matrix(0.8660255074501038, 0.5, -0.5, 0.8660255074501038, 15.941105842590332, -10.58101749420166)" data-type="rect" data-x="24.715" data-y="21.455" data-width="6" data-height="6" d="M24.715 21.455H30.715 V27.455 H24.715 Z"></path><path fill="#ade8f4" rx="3" transform="matrix(0.8660255074501038, 0.5, -0.5, 0.8660255074501038, 18.137104034423828, -12.776593208312988)" data-type="rect" data-x="29.912" data-y="24.455" data-width="6" data-height="6" d="M29.912 24.455H35.912 V30.455 H29.912 Z"></path><path fill="#ade8f4" rx="3" transform="matrix(0.8660255074501038, 0.5, -0.5, 0.8660255074501038, 20.333003997802734, -14.973804473876953)" data-type="rect" data-x="35.108" data-y="27.455" data-width="6" data-height="6" d="M35.108 27.455H41.108 V33.455 H35.108 Z"></path><path fill="#ade8f4" d="m13.883 32.635-1.23 3.908 17.321 10 2.769-3.019-18.86-10.889z" transform="matrix(1, 0, 0, 1, 0, 0)"></path><path fill="#48cae4" d="M25.117 20.955a2.985 2.985 0 0 1-5.416-.511 3 3 0 1 0 5.637.022 2.963 2.963 0 0 1-.221.489Z" transform="matrix(1, 0, 0, 1, 0, 0)"></path><path fill="#48cae4" d="M30.313 23.955a2.985 2.985 0 0 1-5.416-.511 3 3 0 1 0 5.637.022 2.963 2.963 0 0 1-.221.489Z" transform="matrix(1, 0, 0, 1, 0, 0)"></path><path fill="#48cae4" d="M35.51 26.955a2.986 2.986 0 0 1-5.417-.511 3 3 0 1 0 5.637.022 3.043 3.043 0 0 1-.22.489Z" transform="matrix(1, 0, 0, 1, 0, 0)"></path><path fill="#48cae4" d="M40.706 29.955a3 3 0 0 1-4.1 1.1 2.971 2.971 0 0 1-1.319-1.609 3 3 0 0 0 1.319 3.609 2.988 2.988 0 0 0 4.318-3.587 3.043 3.043 0 0 1-.218.487Z" transform="matrix(1, 0, 0, 1, 0, 0)"></path><path fill="#e9f1f2" d="M23 54 7 50v9h16v-5z" transform="matrix(1, 0, 0, 1, 0, 0)"></path><path fill="#ade8f4" d="M34 49h9v4h-9z" transform="matrix(1, 0, 0, 1, 0, 0)"></path><path fill="#48cae4" d="M41 49a2 2 0 0 1-2 2h-5v2h9v-4Z" transform="matrix(1, 0, 0, 1, 0, 0)"></path><path fill="#d0d8da" d="M20.8 53.45a2.99 2.99 0 0 1-3.323 1.929L7 53.529V59h16v-5Z" transform="matrix(1, 0, 0, 1, 0, 0)"></path><path fill="#ade8f4" d="M27 58 3 55v6h24v-3z" transform="matrix(1, 0, 0, 1, 0, 0)"></path><path fill="#48cae4" d="M24.817 57.727a2.988 2.988 0 0 1-3.066 2L3 58.167V61h24v-3Z" transform="matrix(1, 0, 0, 1, 0, 0)"></path></g></svg></svg>