<svg xmlns="http://www.w3.org/2000/svg" width="275.28" height="40" viewBox="0 0 275.28 40"><path d="M46.33,5.9h2.75V4.33h-7L36.44,29.64,30.69,4.33H23.15V5.9h3.12V30.52c0,2.15-.25,6.11-.35,7.6H20.28L13.65.38H10.52L5.46,28.12c-.71,4.14-1.6,8.56-1.9,10H0v1.65H9.52V38.12H5.91C6.22,36,7.18,29.31,7.5,26.5h6l1.89,11.62H12.73v1.65H31.48V38.12h-3c-.08-1.36-.27-4.81-.27-7.6V13.08l6.18,26.74h1.48L41.93,12V38.12H39.08v1.64H49.14V38.12H46.33ZM7.76,24.78,10.57,8.66l2.54,16.12Z"/><path d="M50.92,6h2.77V38.15H50.92v1.67H66.48V27.22H64.75v.64a16.78,16.78,0,0,1-1.56,7.76c-.94,1.75-2.11,2.53-3.25,2.53H58V21.44a1.94,1.94,0,0,1,.91.37l0,0,0,0c.76.57,1.31,2.19,1.56,3.67a20.51,20.51,0,0,1,.27,2.83V29h1.74V12.12H60.83v.64a19.22,19.22,0,0,1-.27,2.84c-.25,1.48-.8,3.12-1.57,3.73h0l0,0a1.91,1.91,0,0,1-.91.33V6h1.9c1.13,0,2.31.79,3.25,2.57a17.11,17.11,0,0,1,1.56,7.81V17h1.73V4.39H50.92Z"/><path d="M88.32,31.11a1,1,0,0,0-.76.41,1.62,1.62,0,0,0-.25,1v1.3a7.79,7.79,0,0,1-.67,3.61c-.4.7-.79.88-1.18.89a.37.37,0,0,1-.31-.15c-.4-.39-.64-2.1-.61-4.1V29.21a6.8,6.8,0,0,0-2.2-5.46,8,8,0,0,0-3.22-2c4.21-1.85,5.69-5.16,5.66-8.3a10.45,10.45,0,0,0-2.27-6.31c-2.14-2.51-5.22-2.81-7.9-2.81H68.49V6h2.44V38.17H68.49v1.64h9.62V38.17H75.24V22.8A5.43,5.43,0,0,1,79,24c1.32,1.27,1.38,3.56,1.37,5.43v4.76A7.73,7.73,0,0,0,81.3,38a3.74,3.74,0,0,0,3.3,2h.08a3.92,3.92,0,0,0,3.22-1.6c1.16-1.48,1.5-3.85,1.51-5.91a1.64,1.64,0,0,0-.2-.85,1,1,0,0,0-.89-.53M78.89,7.45A7.5,7.5,0,0,1,80,10.61a19.75,19.75,0,0,1,.26,2.88,11.91,11.91,0,0,1-1.3,5.9,3.35,3.35,0,0,1-1.77,1.48,6.84,6.84,0,0,1-1.92.21V6a4.33,4.33,0,0,1,3.63,1.46v0Z"/><polygon points="89.19 5.97 91.53 5.97 91.53 38.14 89.6 38.14 89.6 38.78 89.6 39.19 89.6 39.82 98.07 39.82 98.07 38.14 95.8 38.14 95.8 5.97 98.07 5.97 98.07 4.39 89.19 4.39 89.19 5.97"/><path d="M113.06,26.53a1,1,0,0,0-.35-.49,1.07,1.07,0,0,0-.65-.21,1,1,0,0,0-.9.69,2.6,2.6,0,0,0-.11.88,29.94,29.94,0,0,1-.61,6.52,8.35,8.35,0,0,1-1.25,3,2.51,2.51,0,0,1-2.07,1.12H107a1.64,1.64,0,0,1-1.13-.24,4.69,4.69,0,0,1-1.23-2.13,28.72,28.72,0,0,1-1-7c-.16-2.64-.16-5.11-.16-6.07a67.46,67.46,0,0,1,.89-12.9,9.13,9.13,0,0,1,1.19-3.23A1.76,1.76,0,0,1,107,5.57a2.22,2.22,0,0,1,1.77,1c1.67,2.11,2.33,7.22,2.31,9.73V17h1.65V3.8h-1.5v.64A1.08,1.08,0,0,1,111,5a.6.6,0,0,1-.57.28c-.37,0-.58-.19-1.1-.61A3.59,3.59,0,0,0,107,3.8a5,5,0,0,0-3.65,1.9c-3.06,3.44-4.92,10.64-4.94,16.92a30.37,30.37,0,0,0,2.1,11.47,12,12,0,0,0,2.69,4.07,5.67,5.67,0,0,0,4,1.66h0a4.11,4.11,0,0,0,3.06-1.44c2.32-2.59,2.92-7.65,3-11a2.84,2.84,0,0,0-.09-.81"/><path d="M143.37,6h2.45c0,1.41.06,5,.06,7.65V27.17L139.82,4.39h-7.69V6h3.09V30.58c0,1.72-.25,6-.35,7.6H130.2L124.31,4.39h-2.92l-4.51,24.9c-.63,3.65-1.4,7.53-1.68,8.89h-2.75v1.64h8.21V38.18h-3.2c.3-2,1.11-7.72,1.39-10.24H124l1.65,10.24h-2.33v1.64h16.53V38.18h-2.39c-.08-1.58-.28-5.83-.28-7.6V10.34L145,39.82h2.9V13.62c0-2.24.25-6.17.35-7.65h3.17V4.39h-8ZM119.11,26.23l2.39-13.8,2.15,13.8Z"/><path d="M174.86,21.53A9.5,9.5,0,0,0,170,18.07,11.06,11.06,0,0,0,173.29,16a8.75,8.75,0,0,0,3-6.49A8.52,8.52,0,0,0,172.48,2,13.73,13.73,0,0,0,165,0h-7.34V1.62h3.26V38.14h-3.26v1.68H165a14.14,14.14,0,0,0,8.74-2.53c2.3-1.79,3.72-4.62,3.71-8.51a11.48,11.48,0,0,0-2.54-7.25m-3.59-11.4c0,3.68-2,6.17-3.06,6.62a7.05,7.05,0,0,1-2.62.49V1.63c2.12.06,2.93.38,4,1.31,1.53,1.34,1.66,5.4,1.63,7.19m.52,19.21a13.08,13.08,0,0,1-1.57,6.92c-1.26,1.72-3.14,1.87-4.63,1.88v-19A5.22,5.22,0,0,1,170,20.88c.81,1.05,1.8,4.12,1.78,8.46"/><path d="M206.44,6h2.44c0,1.41.07,5,.07,7.65V27.17l-6-22.78h-7.69V6h3.09V30.58c0,1.72-.25,6-.35,7.6h-5.24L186.82,4.39h-2.93l-4.52,24.9c-.62,3.65-1.39,7.53-1.67,8.89h-3.18v1.64h8.64V38.18H180c.3-2,1.11-7.72,1.39-10.24h5.16l1.66,10.24h-2.33v1.64h17.09V38.18h-2.39c-.07-1.58-.27-5.83-.27-7.6V10.34L208,39.82h2.91V13.62c0-2.24.24-6.17.34-7.65h2.32V4.39h-7.14ZM181.61,26.23,184,12.43l2.16,13.8Z"/><path d="M224.79,17l1.52-3.18c.92-2,3-6.5,3.62-7.81h3.21V4.39h-7.39V6h2.05c-.26.65-.65,1.6-1.05,2.58-.73,1.79-1.53,3.73-1.75,4.18l-3.75,7.7V6h2.68V4.39H214.3V6h2.57V38.18h-2.35v1.64h8.68V38.18h-1.95v-14l.75-1.43,4.51,15.43h-1.42v1.64h8.29V38.18h-2.45Z"/><path d="M234.67,6H237V38.19h-2.13v1.63h14.91V27.22h-1.73v.64a16.9,16.9,0,0,1-1.56,7.78c-.94,1.76-2.11,2.55-3.25,2.55h-1.89V21.44a1.84,1.84,0,0,1,.9.37l0,0,0,0c.75.57,1.31,2.19,1.55,3.66a19.86,19.86,0,0,1,.28,2.84V29h1.73V12.12h-1.73v.64a20,20,0,0,1-.28,2.84c-.24,1.48-.8,3.12-1.56,3.73h0l0,0a2.15,2.15,0,0,1-.9.32V6h1.89c1.13,0,2.31.79,3.25,2.57a17.11,17.11,0,0,1,1.56,7.81V17h1.73V4.39H234.67Z"/><path d="M272.21,31.44a1,1,0,0,0-.89-.53,1,1,0,0,0-.76.41,1.62,1.62,0,0,0-.25,1v1.3a7.66,7.66,0,0,1-.67,3.59c-.4.68-.78.86-1.18.87a.38.38,0,0,1-.32-.15c-.39-.37-.63-2.06-.6-4.06V29a6.8,6.8,0,0,0-2.2-5.46,7.86,7.86,0,0,0-3.22-1.95c4.21-1.86,5.69-5.17,5.66-8.31A10.45,10.45,0,0,0,265.51,7c-2.14-2.51-5.22-2.81-7.9-2.8h-6.12V5.75h2.44V38h-2.44v1.64h9.62V38h-2.87V22.6A5.39,5.39,0,0,1,262,23.84c1.32,1.26,1.38,3.55,1.37,5.42V34a7.73,7.73,0,0,0,.91,3.73,3.75,3.75,0,0,0,3.3,2.06h.07a4,4,0,0,0,3.23-1.62c1.16-1.48,1.5-3.84,1.51-5.91a1.64,1.64,0,0,0-.2-.85M261.89,7.25A7.5,7.5,0,0,1,263,10.41a19.75,19.75,0,0,1,.26,2.88,11.91,11.91,0,0,1-1.3,5.9,3.3,3.3,0,0,1-1.77,1.48,6.84,6.84,0,0,1-1.92.21V5.76a4.33,4.33,0,0,1,3.63,1.46v0Z"/><path d="M273.85,36.91a1.43,1.43,0,1,0,1.43,1.42,1.42,1.42,0,0,0-1.43-1.42m0,2.65A1.22,1.22,0,1,1,275,38.33a1.18,1.18,0,0,1-1.17,1.23"/><path d="M274.52,38c0-.32-.19-.48-.58-.48h-.65v1.67h.26v-.71h.28l.45.71h.28l-.48-.73a.44.44,0,0,0,.44-.46m-.7.27h-.27v-.54h.34c.18,0,.37,0,.37.26s-.21.28-.44.28"/></svg>